# Blender 4.0.2
# www.blender.org
mtllib usaf.mtl
o hidden_geometry
v 0.091825 0.061221 0.500000
v 0.012025 0.300994 0.500000
v 0.091825 0.300994 0.500000
v 0.012025 0.061221 0.500000
v -0.172033 -0.226750 0.500000
v -0.187908 -0.178759 0.500000
v -0.172033 -0.178759 0.500000
v -0.187908 -0.226750 0.500000
v 0.291854 0.061433 0.500000
v 0.211842 0.300994 0.500000
v 0.291854 0.300994 0.500000
v 0.211842 0.061433 0.500000
v -0.108098 0.061221 0.500000
v -0.188004 0.300888 0.500000
v -0.108098 0.300888 0.500000
v -0.188004 0.061221 0.500000
v 0.291854 -0.134745 0.500000
v 0.240206 0.017203 0.500000
v 0.291854 0.017203 0.500000
v 0.240206 -0.134745 0.500000
v 0.160089 -0.134745 0.500000
v 0.108335 0.017097 0.500000
v 0.160089 0.017097 0.500000
v 0.108335 -0.134745 0.500000
v 0.027900 -0.134745 0.500000
v -0.023960 0.017205 0.500000
v 0.027900 0.017205 0.500000
v -0.023960 -0.134745 0.500000
v -0.108098 -0.058771 0.500000
v -0.136146 0.017097 0.500000
v -0.108098 0.017097 0.500000
v -0.136146 -0.058771 0.500000
v -0.176150 -0.058771 0.500000
v -0.204091 0.017203 0.500000
v -0.176150 0.017203 0.500000
v -0.204091 -0.058771 0.500000
v -0.244097 -0.058771 0.500000
v -0.272038 0.017203 0.500000
v -0.244097 0.017203 0.500000
v -0.272038 -0.058771 0.500000
v 0.291733 -0.298649 0.500000
v 0.248144 -0.178886 0.500000
v 0.291733 -0.178886 0.500000
v 0.248144 -0.298649 0.500000
v 0.183690 -0.298755 0.500000
v 0.139874 -0.178974 0.500000
v 0.183690 -0.178974 0.500000
v 0.139874 -0.298755 0.500000
v 0.075950 -0.298755 0.500000
v 0.031922 -0.178974 0.500000
v 0.075950 -0.178974 0.500000
v 0.031922 -0.298755 0.500000
v -0.108002 -0.226750 0.500000
v -0.123984 -0.178886 0.500000
v -0.108002 -0.178886 0.500000
v -0.123984 -0.226750 0.500000
v -0.140070 -0.226750 0.500000
v -0.155946 -0.178759 0.500000
v -0.140070 -0.178759 0.500000
v -0.155946 -0.226750 0.500000
vn -0.0000 -0.0000 -1.0000
s 0
usemtl full_lambertian_hidden
f 1//1 2//1 3//1
f 1//1 4//1 2//1
f 5//1 6//1 7//1
f 5//1 8//1 6//1
f 9//1 10//1 11//1
f 9//1 12//1 10//1
f 13//1 14//1 15//1
f 13//1 16//1 14//1
f 17//1 18//1 19//1
f 17//1 20//1 18//1
f 21//1 22//1 23//1
f 21//1 24//1 22//1
f 25//1 26//1 27//1
f 25//1 28//1 26//1
f 29//1 30//1 31//1
f 29//1 32//1 30//1
f 33//1 34//1 35//1
f 33//1 36//1 34//1
f 37//1 38//1 39//1
f 37//1 40//1 38//1
f 41//1 42//1 43//1
f 41//1 44//1 42//1
f 45//1 46//1 47//1
f 45//1 48//1 46//1
f 49//1 50//1 51//1
f 49//1 52//1 50//1
f 53//1 54//1 55//1
f 53//1 56//1 54//1
f 57//1 58//1 59//1
f 57//1 60//1 58//1
