# Blender 4.0.2
# www.blender.org
mtllib Z.mtl
o hidden_geometry
v 0.373658 0.296774 0.496000
v -0.391219 0.400000 0.496000
v 0.373658 0.400000 0.496000
v -0.155772 0.296774 0.496000
v 0.173334 -0.296774 0.496000
v 0.408781 -0.400000 0.496000
v -0.391219 -0.296774 0.496000
v -0.391219 -0.400000 0.496000
v 0.373658 0.296774 0.504000
v 0.373658 0.400000 0.504000
v -0.391219 0.400000 0.504000
v -0.155772 0.296774 0.503999
v 0.173334 -0.296774 0.504000
v 0.408781 -0.400000 0.503999
v -0.391219 -0.296774 0.504000
v -0.391219 -0.400000 0.504000
v 0.366149 0.303546 0.500619
v 0.366149 0.393227 0.500619
v -0.381542 0.395568 0.500410
v -0.158756 0.298140 0.503730
v 0.176317 -0.298140 0.503731
v 0.399103 -0.395569 0.500410
v -0.383710 -0.303546 0.500619
v -0.383710 -0.393228 0.500619
v 0.366149 0.303546 0.499382
v -0.381542 0.395568 0.499590
v 0.366149 0.393227 0.499382
v -0.158756 0.298141 0.496269
v 0.176317 -0.298140 0.496270
v 0.399103 -0.395569 0.499590
v -0.383710 -0.303546 0.499382
v -0.383710 -0.393228 0.499382
vn -0.0000 -0.0000 -1.0000
vn -0.0000 -0.0000 1.0000
vn -0.7770 -0.6295 -0.0000
vn -0.0000 1.0000 -0.0000
vn 0.7770 0.6295 -0.0000
vn 1.0000 -0.0000 -0.0000
vn -0.0000 -1.0000 -0.0000
vn -1.0000 -0.0000 -0.0000
vn -0.0003 -0.0000 1.0000
vn 0.0054 0.0465 0.9989
vn -0.0198 -0.0111 0.9997
vn 0.0198 0.0111 0.9997
vn -0.0051 -0.0457 0.9989
vn 0.0003 -0.0000 1.0000
vn -0.0003 -0.0000 -1.0000
vn 0.0054 0.0465 -0.9989
vn -0.0198 -0.0111 -0.9997
vn 0.0198 0.0111 -0.9997
vn -0.0051 -0.0457 -0.9989
vn 0.0003 -0.0000 -1.0000
vn -0.7793 -0.6267 -0.0000
vn -0.0097 1.0000 -0.0000
vn 0.7793 0.6267 0.0001
vn 0.0031 1.0000 -0.0000
vn -0.0030 -1.0000 -0.0000
vn 0.0103 -0.9999 -0.0001
s 0
usemtl full_lambertian_hidden
f 1//1 2//1 3//1
f 1//1 4//1 2//1
f 4//1 5//1 2//1
f 6//1 5//1 4//1
f 6//1 7//1 5//1
f 6//1 8//1 7//1
f 9//2 10//2 11//2
f 9//2 11//2 12//2
f 12//2 11//2 13//2
f 14//2 12//2 13//2
f 14//2 13//2 15//2
f 14//2 15//2 16//2
f 2//3 5//3 13//3 11//3
f 5//4 7//4 15//4 13//4
f 6//5 4//5 12//5 14//5
f 3//4 2//4 11//4 10//4
f 1//6 3//6 10//6 9//6
f 8//7 6//7 14//7 16//7
f 4//7 1//7 9//7 12//7
f 7//8 8//8 16//8 15//8
f 17//9 18//9 19//9
f 17//10 19//10 20//10
f 20//11 19//11 21//11
f 22//12 20//12 21//12
f 22//13 21//13 23//13
f 22//14 23//14 24//14
f 25//15 26//15 27//15
f 25//16 28//16 26//16
f 28//17 29//17 26//17
f 30//18 29//18 28//18
f 30//19 31//19 29//19
f 30//20 32//20 31//20
f 19//21 26//21 29//21 21//21
f 21//22 29//22 31//22 23//22
f 22//23 30//23 28//23 20//23
f 18//24 27//24 26//24 19//24
f 17//6 25//6 27//6 18//6
f 24//25 32//25 30//25 22//25
f 20//26 28//26 25//26 17//26
f 23//8 31//8 32//8 24//8
